<mxfile host="app.diagrams.net" modified="2024-11-14T10:25:23.102Z" agent="Mozilla/5.0 (Macintosh; Intel Mac OS X 10_15_7) AppleWebKit/537.36 (KHTML, like Gecko) Chrome/130.0.0.0 Safari/537.36" etag="tUxNfk7nWN_mpAf7GxR0" version="24.2.5" type="device">
  <diagram name="Page-1" id="AVLNT3Rk-zQohx5wk3yz">
    <mxGraphModel dx="1306" dy="825" grid="1" gridSize="10" guides="1" tooltips="1" connect="1" arrows="1" fold="1" page="1" pageScale="1" pageWidth="850" pageHeight="1100" math="0" shadow="0">
      <root>
        <mxCell id="0" />
        <mxCell id="1" parent="0" />
        <mxCell id="Km4r-mbmOBHtvc1iBaWP-1" value="Event Source" style="rounded=1;whiteSpace=wrap;html=1;" vertex="1" parent="1">
          <mxGeometry x="480" y="40" width="80" height="40" as="geometry" />
        </mxCell>
        <mxCell id="Km4r-mbmOBHtvc1iBaWP-2" value="" style="rounded=0;whiteSpace=wrap;html=1;" vertex="1" parent="1">
          <mxGeometry x="80" y="120" width="720" height="880" as="geometry" />
        </mxCell>
        <mxCell id="Km4r-mbmOBHtvc1iBaWP-4" value="&lt;font style=&quot;font-size: 10px;&quot;&gt;state store&amp;nbsp;&lt;/font&gt;&lt;div&gt;&lt;font style=&quot;font-size: 10px;&quot;&gt;has an entry for Event&lt;/font&gt;&lt;/div&gt;" style="rhombus;whiteSpace=wrap;html=1;" vertex="1" parent="1">
          <mxGeometry x="480" y="194" width="80" height="80" as="geometry" />
        </mxCell>
        <mxCell id="Km4r-mbmOBHtvc1iBaWP-5" value="" style="endArrow=classic;html=1;rounded=0;entryX=0.5;entryY=0;entryDx=0;entryDy=0;exitX=0.5;exitY=1;exitDx=0;exitDy=0;" edge="1" parent="1" source="Km4r-mbmOBHtvc1iBaWP-1" target="Km4r-mbmOBHtvc1iBaWP-4">
          <mxGeometry width="50" height="50" relative="1" as="geometry">
            <mxPoint x="280" y="350" as="sourcePoint" />
            <mxPoint x="330" y="300" as="targetPoint" />
          </mxGeometry>
        </mxCell>
        <mxCell id="Km4r-mbmOBHtvc1iBaWP-6" value="&lt;p style=&quot;line-height: 0; overflow-wrap: break-word; margin: 0px; padding: 0px; border: 0px; font-family: Arial; background-color: rgb(255, 255, 255);&quot;&gt;&lt;span style=&quot;cursor: auto;&quot;&gt;&lt;span style=&quot;cursor: auto; line-height: 14px;&quot;&gt;Create an entry in State Store for Event.&lt;/span&gt;&lt;/span&gt;&lt;/p&gt;&lt;p style=&quot;line-height: 0; overflow-wrap: break-word; margin: 0px; padding: 0px; border: 0px; font-family: Arial; background-color: rgb(255, 255, 255);&quot;&gt;&lt;span style=&quot;cursor: auto;&quot;&gt;&lt;span style=&quot;cursor: auto; line-height: 14px;&quot;&gt;Aggregation Flag = False&lt;/span&gt;&lt;/span&gt;&lt;/p&gt;&lt;p style=&quot;line-height: 0; overflow-wrap: break-word; margin: 0px; padding: 0px; border: 0px; font-family: Arial; background-color: rgb(255, 255, 255);&quot;&gt;&lt;span style=&quot;cursor: auto;&quot;&gt;&lt;span style=&quot;cursor: auto; line-height: 14px;&quot;&gt;Eventcount=1&lt;/span&gt;&lt;/span&gt;&lt;/p&gt;&lt;p style=&quot;line-height: 0; overflow-wrap: break-word; margin: 0px; padding: 0px; border: 0px; font-family: Arial; background-color: rgb(255, 255, 255);&quot;&gt;&lt;span style=&quot;cursor: auto;&quot;&gt;&lt;span style=&quot;cursor: auto; line-height: 14px;&quot;&gt;Append timestamp to List&lt;/span&gt;&lt;/span&gt;&lt;/p&gt;" style="rounded=0;whiteSpace=wrap;html=1;" vertex="1" parent="1">
          <mxGeometry x="640" y="160" width="80" height="150" as="geometry" />
        </mxCell>
        <mxCell id="Km4r-mbmOBHtvc1iBaWP-7" value="" style="endArrow=classic;html=1;rounded=0;entryX=0;entryY=0.5;entryDx=0;entryDy=0;exitX=1;exitY=0.5;exitDx=0;exitDy=0;" edge="1" parent="1" source="Km4r-mbmOBHtvc1iBaWP-4" target="Km4r-mbmOBHtvc1iBaWP-6">
          <mxGeometry width="50" height="50" relative="1" as="geometry">
            <mxPoint x="280" y="350" as="sourcePoint" />
            <mxPoint x="330" y="300" as="targetPoint" />
          </mxGeometry>
        </mxCell>
        <mxCell id="Km4r-mbmOBHtvc1iBaWP-8" value="False" style="edgeLabel;html=1;align=center;verticalAlign=middle;resizable=0;points=[];" vertex="1" connectable="0" parent="Km4r-mbmOBHtvc1iBaWP-7">
          <mxGeometry x="-0.0252" relative="1" as="geometry">
            <mxPoint as="offset" />
          </mxGeometry>
        </mxCell>
        <mxCell id="Km4r-mbmOBHtvc1iBaWP-9" value="&lt;span style=&quot;background-color: initial;&quot;&gt;&lt;font style=&quot;font-size: 10px;&quot;&gt;Aggregation&amp;nbsp;&lt;/font&gt;&lt;/span&gt;&lt;div&gt;&lt;span style=&quot;background-color: initial;&quot;&gt;&lt;font style=&quot;font-size: 10px;&quot;&gt;Flag?&lt;/font&gt;&lt;/span&gt;&lt;div&gt;&lt;font style=&quot;font-size: 10px;&quot;&gt;(state store)&lt;/font&gt;&lt;/div&gt;&lt;/div&gt;" style="rhombus;whiteSpace=wrap;html=1;" vertex="1" parent="1">
          <mxGeometry x="474.5" y="335" width="91" height="90" as="geometry" />
        </mxCell>
        <mxCell id="Km4r-mbmOBHtvc1iBaWP-10" value="&lt;font style=&quot;font-size: 9px;&quot;&gt;Time stamp&lt;br&gt;&amp;nbsp;exists?&lt;br&gt;(state store)&lt;/font&gt;" style="rhombus;whiteSpace=wrap;html=1;" vertex="1" parent="1">
          <mxGeometry x="270" y="340" width="80" height="80" as="geometry" />
        </mxCell>
        <mxCell id="Km4r-mbmOBHtvc1iBaWP-11" value="True" style="endArrow=classic;html=1;rounded=0;entryX=0.5;entryY=0;entryDx=0;entryDy=0;exitX=0.5;exitY=1;exitDx=0;exitDy=0;" edge="1" parent="1" source="Km4r-mbmOBHtvc1iBaWP-4" target="Km4r-mbmOBHtvc1iBaWP-10">
          <mxGeometry width="50" height="50" relative="1" as="geometry">
            <mxPoint x="230" y="300" as="sourcePoint" />
            <mxPoint x="280" y="250" as="targetPoint" />
            <Array as="points">
              <mxPoint x="520" y="300" />
              <mxPoint x="310" y="300" />
            </Array>
          </mxGeometry>
        </mxCell>
        <mxCell id="Km4r-mbmOBHtvc1iBaWP-13" value="True" style="endArrow=classic;html=1;rounded=0;exitX=0;exitY=0.5;exitDx=0;exitDy=0;entryX=1;entryY=0.5;entryDx=0;entryDy=0;" edge="1" parent="1" source="Km4r-mbmOBHtvc1iBaWP-10" target="Km4r-mbmOBHtvc1iBaWP-14">
          <mxGeometry width="50" height="50" relative="1" as="geometry">
            <mxPoint x="200" y="380" as="sourcePoint" />
            <mxPoint x="250" y="330" as="targetPoint" />
          </mxGeometry>
        </mxCell>
        <mxCell id="Km4r-mbmOBHtvc1iBaWP-14" value="Drop the event" style="rounded=0;whiteSpace=wrap;html=1;" vertex="1" parent="1">
          <mxGeometry x="103" y="365" width="80" height="30" as="geometry" />
        </mxCell>
        <mxCell id="Km4r-mbmOBHtvc1iBaWP-15" value="" style="endArrow=classic;html=1;rounded=0;entryX=0;entryY=0.5;entryDx=0;entryDy=0;exitX=1;exitY=0.5;exitDx=0;exitDy=0;" edge="1" parent="1" source="Km4r-mbmOBHtvc1iBaWP-10" target="Km4r-mbmOBHtvc1iBaWP-9">
          <mxGeometry width="50" height="50" relative="1" as="geometry">
            <mxPoint x="320" y="480" as="sourcePoint" />
            <mxPoint x="370" y="430" as="targetPoint" />
          </mxGeometry>
        </mxCell>
        <mxCell id="Km4r-mbmOBHtvc1iBaWP-16" value="False" style="edgeLabel;html=1;align=center;verticalAlign=middle;resizable=0;points=[];" vertex="1" connectable="0" parent="Km4r-mbmOBHtvc1iBaWP-15">
          <mxGeometry x="-0.0992" y="-3" relative="1" as="geometry">
            <mxPoint y="-4" as="offset" />
          </mxGeometry>
        </mxCell>
        <mxCell id="Km4r-mbmOBHtvc1iBaWP-18" value="Increment the count for event in state store" style="rounded=0;whiteSpace=wrap;html=1;" vertex="1" parent="1">
          <mxGeometry x="640" y="340" width="80" height="80" as="geometry" />
        </mxCell>
        <mxCell id="Km4r-mbmOBHtvc1iBaWP-20" value="" style="endArrow=classic;html=1;rounded=0;entryX=0;entryY=0.5;entryDx=0;entryDy=0;exitX=1;exitY=0.5;exitDx=0;exitDy=0;" edge="1" parent="1" source="Km4r-mbmOBHtvc1iBaWP-9" target="Km4r-mbmOBHtvc1iBaWP-18">
          <mxGeometry width="50" height="50" relative="1" as="geometry">
            <mxPoint x="280" y="430" as="sourcePoint" />
            <mxPoint x="330" y="380" as="targetPoint" />
          </mxGeometry>
        </mxCell>
        <mxCell id="Km4r-mbmOBHtvc1iBaWP-21" value="False" style="edgeLabel;html=1;align=center;verticalAlign=middle;resizable=0;points=[];" vertex="1" connectable="0" parent="Km4r-mbmOBHtvc1iBaWP-20">
          <mxGeometry x="-0.0201" y="-1" relative="1" as="geometry">
            <mxPoint y="-1" as="offset" />
          </mxGeometry>
        </mxCell>
        <mxCell id="Km4r-mbmOBHtvc1iBaWP-22" value="Append the Event &amp;amp; Timestamp &amp;amp; increment the count in state store" style="rounded=0;whiteSpace=wrap;html=1;" vertex="1" parent="1">
          <mxGeometry x="480" y="470" width="80" height="90" as="geometry" />
        </mxCell>
        <mxCell id="Km4r-mbmOBHtvc1iBaWP-23" value="True" style="endArrow=classic;html=1;rounded=0;exitX=0.5;exitY=1;exitDx=0;exitDy=0;" edge="1" parent="1" source="Km4r-mbmOBHtvc1iBaWP-9" target="Km4r-mbmOBHtvc1iBaWP-22">
          <mxGeometry x="0.0222" width="50" height="50" relative="1" as="geometry">
            <mxPoint x="490" y="480" as="sourcePoint" />
            <mxPoint x="540" y="430" as="targetPoint" />
            <mxPoint as="offset" />
          </mxGeometry>
        </mxCell>
        <mxCell id="Km4r-mbmOBHtvc1iBaWP-25" value="&lt;span style=&quot;font-size: 10px;&quot;&gt;Event count &amp;gt; Threshold?&lt;/span&gt;" style="rhombus;whiteSpace=wrap;html=1;" vertex="1" parent="1">
          <mxGeometry x="474.5" y="610" width="91" height="90" as="geometry" />
        </mxCell>
        <mxCell id="Km4r-mbmOBHtvc1iBaWP-26" value="" style="endArrow=classic;html=1;rounded=0;entryX=0.5;entryY=0;entryDx=0;entryDy=0;exitX=0.5;exitY=1;exitDx=0;exitDy=0;" edge="1" parent="1" source="Km4r-mbmOBHtvc1iBaWP-22" target="Km4r-mbmOBHtvc1iBaWP-25">
          <mxGeometry width="50" height="50" relative="1" as="geometry">
            <mxPoint x="350" y="670" as="sourcePoint" />
            <mxPoint x="400" y="620" as="targetPoint" />
          </mxGeometry>
        </mxCell>
        <mxCell id="Km4r-mbmOBHtvc1iBaWP-27" value="&lt;span style=&quot;font-size: 10px;&quot;&gt;Event count &amp;gt; Threshold?&lt;/span&gt;" style="rhombus;whiteSpace=wrap;html=1;" vertex="1" parent="1">
          <mxGeometry x="635" y="470" width="91" height="90" as="geometry" />
        </mxCell>
        <mxCell id="Km4r-mbmOBHtvc1iBaWP-28" value="" style="endArrow=classic;html=1;rounded=0;entryX=0.5;entryY=0;entryDx=0;entryDy=0;exitX=0.5;exitY=1;exitDx=0;exitDy=0;" edge="1" parent="1" source="Km4r-mbmOBHtvc1iBaWP-18" target="Km4r-mbmOBHtvc1iBaWP-27">
          <mxGeometry width="50" height="50" relative="1" as="geometry">
            <mxPoint x="674" y="420" as="sourcePoint" />
            <mxPoint x="680" y="470" as="targetPoint" />
          </mxGeometry>
        </mxCell>
        <mxCell id="Km4r-mbmOBHtvc1iBaWP-29" value="&lt;font style=&quot;font-size: 10px;&quot;&gt;Aggregation flag = True&lt;br&gt;Event count = 0&lt;/font&gt;&lt;div&gt;&lt;font style=&quot;font-size: 10px;&quot;&gt;aggrStartTime = Now&lt;br&gt;(state store)&lt;/font&gt;&lt;/div&gt;" style="rounded=0;whiteSpace=wrap;html=1;" vertex="1" parent="1">
          <mxGeometry x="640" y="610" width="80" height="90" as="geometry" />
        </mxCell>
        <mxCell id="Km4r-mbmOBHtvc1iBaWP-30" value="" style="endArrow=classic;html=1;rounded=0;exitX=0.5;exitY=1;exitDx=0;exitDy=0;" edge="1" parent="1" source="Km4r-mbmOBHtvc1iBaWP-27" target="Km4r-mbmOBHtvc1iBaWP-29">
          <mxGeometry width="50" height="50" relative="1" as="geometry">
            <mxPoint x="530" y="570" as="sourcePoint" />
            <mxPoint x="530" y="610" as="targetPoint" />
          </mxGeometry>
        </mxCell>
        <mxCell id="Km4r-mbmOBHtvc1iBaWP-32" value="True" style="edgeLabel;html=1;align=center;verticalAlign=middle;resizable=0;points=[];" vertex="1" connectable="0" parent="Km4r-mbmOBHtvc1iBaWP-30">
          <mxGeometry x="-0.4" y="1" relative="1" as="geometry">
            <mxPoint as="offset" />
          </mxGeometry>
        </mxCell>
        <mxCell id="Km4r-mbmOBHtvc1iBaWP-31" value="&lt;p style=&quot;line-height: 0; overflow-wrap: break-word; margin: 0px; padding: 0px; border: 0px; font-family: Arial; background-color: rgb(255, 255, 255);&quot;&gt;&lt;span style=&quot;cursor: auto; font-size: 11px; line-height: 12px;&quot;&gt;Forward the&amp;nbsp; Aggregated Event from State Store&lt;/span&gt;&lt;/p&gt;&lt;p style=&quot;line-height: 0; overflow-wrap: break-word; margin: 0px; padding: 0px; border: 0px; font-family: Arial; background-color: rgb(255, 255, 255);&quot;&gt;&lt;span style=&quot;cursor: auto; font-size: 11px; line-height: 12px;&quot;&gt;and Delete Aggregated&amp;nbsp; Event &amp;amp; timestamp, reset Event count = 0, set&amp;nbsp;&lt;span style=&quot;cursor: auto; font-size: 10px; line-height: 11px;&quot;&gt;aggrStartTime=Now&lt;/span&gt;&amp;nbsp;&amp;amp; keep Flag = True from State store&lt;/span&gt;&lt;/p&gt;" style="rounded=0;whiteSpace=wrap;html=1;" vertex="1" parent="1">
          <mxGeometry x="460" y="750" width="120" height="140" as="geometry" />
        </mxCell>
        <mxCell id="Km4r-mbmOBHtvc1iBaWP-33" value="" style="endArrow=classic;html=1;rounded=0;exitX=0;exitY=0.25;exitDx=0;exitDy=0;entryX=1;entryY=0.5;entryDx=0;entryDy=0;" edge="1" parent="1" source="Km4r-mbmOBHtvc1iBaWP-29" target="Km4r-mbmOBHtvc1iBaWP-22">
          <mxGeometry width="50" height="50" relative="1" as="geometry">
            <mxPoint x="300" y="660" as="sourcePoint" />
            <mxPoint x="350" y="610" as="targetPoint" />
            <Array as="points">
              <mxPoint x="600" y="633" />
              <mxPoint x="600" y="515" />
            </Array>
          </mxGeometry>
        </mxCell>
        <mxCell id="Km4r-mbmOBHtvc1iBaWP-35" value="" style="endArrow=classic;html=1;rounded=0;entryX=0.5;entryY=0;entryDx=0;entryDy=0;exitX=0.5;exitY=1;exitDx=0;exitDy=0;" edge="1" parent="1" source="Km4r-mbmOBHtvc1iBaWP-25" target="Km4r-mbmOBHtvc1iBaWP-31">
          <mxGeometry width="50" height="50" relative="1" as="geometry">
            <mxPoint x="530" y="570" as="sourcePoint" />
            <mxPoint x="530" y="610" as="targetPoint" />
          </mxGeometry>
        </mxCell>
        <mxCell id="Km4r-mbmOBHtvc1iBaWP-36" value="True" style="edgeLabel;html=1;align=center;verticalAlign=middle;resizable=0;points=[];" vertex="1" connectable="0" parent="Km4r-mbmOBHtvc1iBaWP-35">
          <mxGeometry x="0.0333" y="1" relative="1" as="geometry">
            <mxPoint as="offset" />
          </mxGeometry>
        </mxCell>
        <mxCell id="Km4r-mbmOBHtvc1iBaWP-37" value="&lt;span style=&quot;font-family: Arial; background-color: rgb(255, 255, 255);&quot;&gt;&lt;font style=&quot;font-size: 10px;&quot;&gt;Store&amp;nbsp;Appended Event &amp;amp; timestamp &amp;amp; Incremented count in State Store&lt;/font&gt;&lt;/span&gt;" style="rounded=0;whiteSpace=wrap;html=1;" vertex="1" parent="1">
          <mxGeometry x="640.5" y="770" width="80" height="90" as="geometry" />
        </mxCell>
        <mxCell id="Km4r-mbmOBHtvc1iBaWP-38" value="" style="endArrow=classic;html=1;rounded=0;entryX=0;entryY=0.5;entryDx=0;entryDy=0;exitX=1;exitY=0.5;exitDx=0;exitDy=0;" edge="1" parent="1" source="Km4r-mbmOBHtvc1iBaWP-25" target="Km4r-mbmOBHtvc1iBaWP-37">
          <mxGeometry width="50" height="50" relative="1" as="geometry">
            <mxPoint x="300" y="710" as="sourcePoint" />
            <mxPoint x="350" y="660" as="targetPoint" />
            <Array as="points">
              <mxPoint x="600" y="655" />
              <mxPoint x="600" y="815" />
            </Array>
          </mxGeometry>
        </mxCell>
        <mxCell id="Km4r-mbmOBHtvc1iBaWP-39" value="False" style="edgeLabel;html=1;align=center;verticalAlign=middle;resizable=0;points=[];" vertex="1" connectable="0" parent="Km4r-mbmOBHtvc1iBaWP-38">
          <mxGeometry x="-0.078" y="-1" relative="1" as="geometry">
            <mxPoint y="1" as="offset" />
          </mxGeometry>
        </mxCell>
        <mxCell id="Km4r-mbmOBHtvc1iBaWP-40" value="Publish Events to Downstream services" style="rounded=0;whiteSpace=wrap;html=1;" vertex="1" parent="1">
          <mxGeometry x="460" y="950" width="120" height="30" as="geometry" />
        </mxCell>
        <mxCell id="Km4r-mbmOBHtvc1iBaWP-42" value="" style="endArrow=classic;html=1;rounded=0;exitX=1;exitY=0.5;exitDx=0;exitDy=0;entryX=1;entryY=0.5;entryDx=0;entryDy=0;" edge="1" parent="1" source="Km4r-mbmOBHtvc1iBaWP-6" target="Km4r-mbmOBHtvc1iBaWP-40">
          <mxGeometry width="50" height="50" relative="1" as="geometry">
            <mxPoint x="210" y="610" as="sourcePoint" />
            <mxPoint x="260" y="560" as="targetPoint" />
            <Array as="points">
              <mxPoint x="780" y="235" />
              <mxPoint x="780" y="965" />
            </Array>
          </mxGeometry>
        </mxCell>
        <mxCell id="Km4r-mbmOBHtvc1iBaWP-43" value="" style="endArrow=classic;html=1;rounded=0;entryX=1;entryY=0;entryDx=0;entryDy=0;exitX=1;exitY=0.5;exitDx=0;exitDy=0;" edge="1" parent="1" source="Km4r-mbmOBHtvc1iBaWP-27" target="Km4r-mbmOBHtvc1iBaWP-40">
          <mxGeometry width="50" height="50" relative="1" as="geometry">
            <mxPoint x="330" y="790" as="sourcePoint" />
            <mxPoint x="380" y="740" as="targetPoint" />
            <Array as="points">
              <mxPoint x="760" y="515" />
              <mxPoint x="760" y="950" />
            </Array>
          </mxGeometry>
        </mxCell>
        <mxCell id="Km4r-mbmOBHtvc1iBaWP-44" value="False" style="edgeLabel;html=1;align=center;verticalAlign=middle;resizable=0;points=[];" vertex="1" connectable="0" parent="Km4r-mbmOBHtvc1iBaWP-43">
          <mxGeometry x="-0.5316" y="-1" relative="1" as="geometry">
            <mxPoint as="offset" />
          </mxGeometry>
        </mxCell>
        <mxCell id="Km4r-mbmOBHtvc1iBaWP-45" value="" style="rounded=0;whiteSpace=wrap;html=1;" vertex="1" parent="1">
          <mxGeometry x="110" y="470" width="310" height="440" as="geometry" />
        </mxCell>
        <mxCell id="Km4r-mbmOBHtvc1iBaWP-46" value="Punctuator - Iterate through all the state store entries" style="text;html=1;align=center;verticalAlign=middle;whiteSpace=wrap;rounded=0;" vertex="1" parent="1">
          <mxGeometry x="113" y="470" width="287" height="30" as="geometry" />
        </mxCell>
        <mxCell id="Km4r-mbmOBHtvc1iBaWP-47" value="&lt;font style=&quot;font-size: 10px;&quot;&gt;Aggregation&lt;/font&gt;&lt;div&gt;&lt;font style=&quot;font-size: 10px;&quot;&gt;Flag?&lt;br&gt;(state store)&lt;/font&gt;&lt;/div&gt;" style="rhombus;whiteSpace=wrap;html=1;" vertex="1" parent="1">
          <mxGeometry x="120" y="575" width="90" height="90" as="geometry" />
        </mxCell>
        <mxCell id="Km4r-mbmOBHtvc1iBaWP-48" value="&lt;div&gt;&lt;span style=&quot;font-family: Arial; background-color: rgb(255, 255, 255);&quot;&gt;&lt;font style=&quot;font-size: 9px;&quot;&gt;&lt;br&gt;&lt;/font&gt;&lt;/span&gt;&lt;/div&gt;&lt;span style=&quot;font-family: Arial; background-color: rgb(255, 255, 255);&quot;&gt;&lt;font style=&quot;font-size: 9px;&quot;&gt;EventCount &amp;lt; Threshold&lt;/font&gt;&lt;/span&gt;&lt;div&gt;&lt;span style=&quot;font-family: Arial; background-color: rgb(255, 255, 255);&quot;&gt;&lt;font style=&quot;font-size: 9px;&quot;&gt;&amp;nbsp;&amp;amp; now - aggStartTime &amp;gt;= duration?&lt;/font&gt;&lt;/span&gt;&lt;/div&gt;" style="rhombus;whiteSpace=wrap;html=1;" vertex="1" parent="1">
          <mxGeometry x="260" y="560" width="120" height="120" as="geometry" />
        </mxCell>
        <mxCell id="Km4r-mbmOBHtvc1iBaWP-49" value="" style="endArrow=classic;html=1;rounded=0;entryX=0;entryY=0.5;entryDx=0;entryDy=0;exitX=1;exitY=0.5;exitDx=0;exitDy=0;" edge="1" parent="1" source="Km4r-mbmOBHtvc1iBaWP-47" target="Km4r-mbmOBHtvc1iBaWP-48">
          <mxGeometry width="50" height="50" relative="1" as="geometry">
            <mxPoint x="170" y="710" as="sourcePoint" />
            <mxPoint x="220" y="660" as="targetPoint" />
          </mxGeometry>
        </mxCell>
        <mxCell id="Km4r-mbmOBHtvc1iBaWP-50" value="True" style="edgeLabel;html=1;align=center;verticalAlign=middle;resizable=0;points=[];" vertex="1" connectable="0" parent="Km4r-mbmOBHtvc1iBaWP-49">
          <mxGeometry x="0.0571" y="-1" relative="1" as="geometry">
            <mxPoint as="offset" />
          </mxGeometry>
        </mxCell>
        <mxCell id="Km4r-mbmOBHtvc1iBaWP-51" value="&lt;span style=&quot;font-family: Arial; background-color: rgb(255, 255, 255);&quot;&gt;Delete the&amp;nbsp; State Store Entry for Event&lt;/span&gt;" style="rounded=0;whiteSpace=wrap;html=1;" vertex="1" parent="1">
          <mxGeometry x="115" y="720" width="100" height="60" as="geometry" />
        </mxCell>
        <mxCell id="Km4r-mbmOBHtvc1iBaWP-52" value="" style="endArrow=classic;html=1;rounded=0;entryX=0.5;entryY=0;entryDx=0;entryDy=0;exitX=0.5;exitY=1;exitDx=0;exitDy=0;" edge="1" parent="1" target="Km4r-mbmOBHtvc1iBaWP-51">
          <mxGeometry width="50" height="50" relative="1" as="geometry">
            <mxPoint x="165" y="650" as="sourcePoint" />
            <mxPoint x="169" y="750" as="targetPoint" />
          </mxGeometry>
        </mxCell>
        <mxCell id="Km4r-mbmOBHtvc1iBaWP-53" value="False" style="edgeLabel;html=1;align=center;verticalAlign=middle;resizable=0;points=[];" vertex="1" connectable="0" parent="Km4r-mbmOBHtvc1iBaWP-52">
          <mxGeometry x="-0.2571" y="-1" relative="1" as="geometry">
            <mxPoint as="offset" />
          </mxGeometry>
        </mxCell>
        <mxCell id="Km4r-mbmOBHtvc1iBaWP-54" value="No Op" style="rounded=0;whiteSpace=wrap;html=1;" vertex="1" parent="1">
          <mxGeometry x="285" y="510" width="80" height="30" as="geometry" />
        </mxCell>
        <mxCell id="Km4r-mbmOBHtvc1iBaWP-55" value="" style="endArrow=classic;html=1;rounded=0;exitX=1;exitY=0.5;exitDx=0;exitDy=0;entryX=1;entryY=0.5;entryDx=0;entryDy=0;" edge="1" parent="1" source="Km4r-mbmOBHtvc1iBaWP-48" target="Km4r-mbmOBHtvc1iBaWP-54">
          <mxGeometry width="50" height="50" relative="1" as="geometry">
            <mxPoint x="290" y="720" as="sourcePoint" />
            <mxPoint x="340" y="670" as="targetPoint" />
            <Array as="points">
              <mxPoint x="400" y="620" />
              <mxPoint x="400" y="525" />
            </Array>
          </mxGeometry>
        </mxCell>
        <mxCell id="Km4r-mbmOBHtvc1iBaWP-56" value="False" style="edgeLabel;html=1;align=center;verticalAlign=middle;resizable=0;points=[];" vertex="1" connectable="0" parent="Km4r-mbmOBHtvc1iBaWP-55">
          <mxGeometry x="0.008" y="-2" relative="1" as="geometry">
            <mxPoint as="offset" />
          </mxGeometry>
        </mxCell>
        <mxCell id="Km4r-mbmOBHtvc1iBaWP-57" value="&lt;p style=&quot;line-height: 0; overflow-wrap: break-word; margin: 0px; padding: 0px; border: 0px; font-family: Arial; background-color: rgb(255, 255, 255);&quot;&gt;&lt;span style=&quot;cursor: auto; line-height: normal;&quot;&gt;Forward the&amp;nbsp; Aggregated Event from State Store&lt;/span&gt;&lt;/p&gt;&lt;p style=&quot;line-height: 0; overflow-wrap: break-word; margin: 0px; padding: 0px; border: 0px; font-family: Arial; background-color: rgb(255, 255, 255);&quot;&gt;&lt;span style=&quot;cursor: auto; line-height: normal;&quot;&gt;and Delete State Store Entry for Event&lt;/span&gt;&lt;/p&gt;" style="rounded=0;whiteSpace=wrap;html=1;" vertex="1" parent="1">
          <mxGeometry x="270" y="760" width="100" height="110" as="geometry" />
        </mxCell>
        <mxCell id="Km4r-mbmOBHtvc1iBaWP-58" value="" style="endArrow=classic;html=1;rounded=0;entryX=0.5;entryY=0;entryDx=0;entryDy=0;exitX=0.5;exitY=1;exitDx=0;exitDy=0;" edge="1" parent="1" source="Km4r-mbmOBHtvc1iBaWP-48" target="Km4r-mbmOBHtvc1iBaWP-57">
          <mxGeometry width="50" height="50" relative="1" as="geometry">
            <mxPoint x="250" y="770" as="sourcePoint" />
            <mxPoint x="300" y="720" as="targetPoint" />
          </mxGeometry>
        </mxCell>
        <mxCell id="Km4r-mbmOBHtvc1iBaWP-59" value="True&lt;div&gt;&lt;br&gt;&lt;div&gt;(restoring Normalcy)&lt;/div&gt;&lt;/div&gt;" style="edgeLabel;html=1;align=center;verticalAlign=middle;resizable=0;points=[];" vertex="1" connectable="0" parent="Km4r-mbmOBHtvc1iBaWP-58">
          <mxGeometry x="-0.3" relative="1" as="geometry">
            <mxPoint as="offset" />
          </mxGeometry>
        </mxCell>
        <mxCell id="Km4r-mbmOBHtvc1iBaWP-60" value="" style="endArrow=classic;html=1;rounded=0;entryX=0;entryY=0.5;entryDx=0;entryDy=0;exitX=0.5;exitY=1;exitDx=0;exitDy=0;" edge="1" parent="1" source="Km4r-mbmOBHtvc1iBaWP-57" target="Km4r-mbmOBHtvc1iBaWP-40">
          <mxGeometry width="50" height="50" relative="1" as="geometry">
            <mxPoint x="340" y="1060" as="sourcePoint" />
            <mxPoint x="390" y="1010" as="targetPoint" />
            <Array as="points">
              <mxPoint x="320" y="965" />
            </Array>
          </mxGeometry>
        </mxCell>
        <mxCell id="Km4r-mbmOBHtvc1iBaWP-61" value="" style="endArrow=classic;html=1;rounded=0;entryX=0.5;entryY=0;entryDx=0;entryDy=0;exitX=0.5;exitY=1;exitDx=0;exitDy=0;" edge="1" parent="1" source="Km4r-mbmOBHtvc1iBaWP-31" target="Km4r-mbmOBHtvc1iBaWP-40">
          <mxGeometry width="50" height="50" relative="1" as="geometry">
            <mxPoint x="300" y="1080" as="sourcePoint" />
            <mxPoint x="350" y="1030" as="targetPoint" />
          </mxGeometry>
        </mxCell>
        <mxCell id="Km4r-mbmOBHtvc1iBaWP-62" value="Downstream services" style="rounded=0;whiteSpace=wrap;html=1;" vertex="1" parent="1">
          <mxGeometry x="460" y="1040" width="120" height="30" as="geometry" />
        </mxCell>
        <mxCell id="Km4r-mbmOBHtvc1iBaWP-63" value="" style="endArrow=classic;html=1;rounded=0;entryX=0.5;entryY=0;entryDx=0;entryDy=0;exitX=0.5;exitY=1;exitDx=0;exitDy=0;" edge="1" parent="1" source="Km4r-mbmOBHtvc1iBaWP-40" target="Km4r-mbmOBHtvc1iBaWP-62">
          <mxGeometry width="50" height="50" relative="1" as="geometry">
            <mxPoint x="330" y="1060" as="sourcePoint" />
            <mxPoint x="380" y="1010" as="targetPoint" />
          </mxGeometry>
        </mxCell>
      </root>
    </mxGraphModel>
  </diagram>
</mxfile>
